{"title":"Nakli Nawab 1962 1CD Dvdrip X264 AAC [RRG DBB][DADA]","uid":8221236,"size":708610251,"categoryP":"video","categoryS":"movies","magnet":"?xt=urn:btih:693c5459c28138e2b2cedc8f02fe7c57e61a57ec&amp;dn=Nakli+Nawab+1962+1CD+Dvdrip+X264+AAC+%5BRRG+DBB%5D%5BDADA%5D&amp;tr=udp%3A%2F%2Ftracker.openbittorrent.com%3A80&amp;tr=udp%3A%2F%2Fopen.demonii.com%3A1337&amp;tr=udp%3A%2F%2Ftracker.coppersurfer.tk%3A6969&amp;tr=udp%3A%2F%2Fexodus.desync.com%3A6969","seeders":1,"leechers":0,"uploader":"brego45","files":1,"time":1362441817,"description":"\nCover -\n\n\n\n    &lt;a href=&quot;\thttp://desibbrg.org/images/69810471325827547132.jpg&quot; rel=&quot;nofollow&quot; target=&quot;_NEW&quot;&gt;\thttp://desibbrg.org/images/69810471325827547132.jpg&lt;/a&gt;\nScreens -\n\n\n\n &lt;a href=&quot;\nhttp://desibbrg.net/imghost/show.php?img=430024_Nakli.Nawab.1962.1CD.Dvdrip.X264.AAC.RRG.DADA.DBBIANS.Comthumbs.jpg.html&quot; rel=&quot;nofollow&quot; target=&quot;_NEW&quot;&gt;\nhttp://desibbrg.net/imghost/show.php?img=430024_Nakli.Nawab.1962.1CD.Dvdrip.X264.AAC.RRG.DADA.DBBIANS.Comthumbs.jpg.html&lt;/a&gt;\n\n\n\nInfo -\n\n\nGeneral\n\n\nFormat                                   : Mp4 Video\nFile size                                : 676 MiB\nDuration                                 : 2h 13mn\nOverall bit rate                         : 709 Kbps\n\nVideo\nFormat                                   : AVC\nFormat/Info                              : Advanced Video Codec\nFormat profile                           : &lt;a class=&quot;__cf_email__&quot; href=&quot;/cdn-cgi/l/email-protection&quot; data-cfemail=&quot;8dc0ece4e3cdc1bea3bd&quot;&gt;[email&amp;#160;protected]&lt;/a&gt;&lt;script cf-hash='f9e31' type=&quot;text/javascript&quot;&gt;\n/* &lt;![CDATA[ */!function(){try{var t=&quot;currentScript&quot;in document?document.currentScript:function(){for(var t=document.getElementsByTagName(&quot;script&quot;),e=t.length;e--;)if(t[e].getAttribute(&quot;cf-hash&quot;))return t[e]}();if(t&amp;&amp;t.previousSibling){var e,r,n,i,c=t.previousSibling,a=c.getAttribute(&quot;data-cfemail&quot;);if(a){for(e=&quot;&quot;,r=parseInt(a.substr(0,2),16),n=2;a.length-n;n+=2)i=parseInt(a.substr(n,2),16)^r,e+=String.fromCharCode(i);e=document.createTextNode(e),c.parentNode.replaceChild(e,c)}}}catch(u){}}();/* ]]&gt; */&lt;/script&gt;\nFormat settings, CABAC                   : Yes\nFormat settings, ReFrames                : 3 frames\nCodec ID                                 : 7\nDuration                                 : 2h 13mn\nBit rate                                 : 573 Kbps\nWidth                                    : 640 pixels\nHeight                                   : 360 pixels\nDisplay aspect ratio                     : 16:9\nFrame rate mode                          : Constant\nFrame rate                               : 25.000 fps\nColor space                              : YUV\nChroma subsampling                       : 4:2:0\nBit depth                                : 8 bits\nScan type                                : Progressive\nBits/(Pixel*Frame)                       : 0.099\nStream size                              : 545 MiB (81%)\n\nAudio\nFormat                                   : AAC\nFormat/Info                              : Advanced Audio Codec\nFormat profile                           : LC\nCodec ID                                 : 10\nDuration                                 : 2h 13mn\nBit rate                                 : 129 Kbps\nChannel(s)                               : 2 channels\nChannel positions                        : Front: L R\nSampling rate                            : 44.1 KHz\nCompression mode                         : Lossy\nStream size                              : 123 MiB (18%)\n\n &lt;a href=&quot;\nhttp://www.imdb.com/title/tt0399394/&quot; rel=&quot;nofollow&quot; target=&quot;_NEW&quot;&gt;\nhttp://www.imdb.com/title/tt0399394/&lt;/a&gt;\n\nNaqli Nawab is a romantic cum drama based movie. The story starts with a pick pocket man Yusuf (Manoj Kumar) who was also a shayar. Two nawab brothers Bade nawab and Shouqat miya (Ashok kumar) and they had younger sister Shabnam who fell in love with Yusuf but because of her family status, she did not tell it to anyone. However, Shouqat discovered that Yusuf was his friend son who had lost in a fair many years back. Shouqat elated as he promised his friend that he will search his son Yusuf. Everything goes well and they fix up the marriage of Shabnam and Yusuf. The story brings twist when Yusuf, Shouqat and Bade Nawab were trapped in a murder mystery and how they get out of it. \n\n\nAbout this movie\n\n    Genres:\nDrama, Indian Cinema, Music\n    Language:\nHindi\n    Running time:\n2:13:11\n\nBanner\nZar Films\n\nRelease Date\nJanuary, 1, 1962\n \nGenre\nRomance\n \nLanguage\nHindi\n\nMusic Company\nSaregama-HMV\n\nStar Cast\nManoj Kumar\nAshok Kumar\nMaruti\nK N Singh\nKamal Kapoor\nIndira\nShammi\n","torrent":{"xt":"urn:btih:693c5459c28138e2b2cedc8f02fe7c57e61a57ec","amp;dn":"Nakli+Nawab+1962+1CD+Dvdrip+X264+AAC+%5BRRG+DBB%5D%5BDADA%5D","amp;tr":["udp%3A%2F%2Ftracker.openbittorrent.com%3A80","udp%3A%2F%2Fopen.demonii.com%3A1337","udp%3A%2F%2Ftracker.coppersurfer.tk%3A6969","udp%3A%2F%2Fexodus.desync.com%3A6969"],"infoHash":"693c5459c28138e2b2cedc8f02fe7c57e61a57ec","infoHashBuffer":{"type":"Buffer","data":[105,60,84,89,194,129,56,226,178,206,220,143,2,254,124,87,230,26,87,236]},"announce":[],"urlList":[]}}